<?xml version="1.0" encoding="UTF-8"?>
<!DOCTYPE svg PUBLIC "-//W3C//DTD SVG 1.1//EN" "http://www.w3.org/Graphics/SVG/1.1/DTD/svg11.dtd">
<!-- Creator: CorelDRAW 2019 (64-Bit) -->
<svg xmlns="http://www.w3.org/2000/svg" xml:space="preserve" width="215.9mm" height="279.4mm" version="1.1" style="shape-rendering:geometricPrecision; text-rendering:geometricPrecision; image-rendering:optimizeQuality; fill-rule:evenodd; clip-rule:evenodd"
viewBox="0 0 21590 27940"
 xmlns:xlink="http://www.w3.org/1999/xlink"
 xmlns:xodm="http://www.corel.com/coreldraw/odm/2003">
 <defs>
  <style type="text/css">
   <![CDATA[
    .fil0 {fill:#FEFEFE}
    .fil6 {fill:#ED3237}
    .fil5 {fill:#00A859}
    .fil7 {fill:#0098DA}
    .fil4 {fill:#ED3237;fill-rule:nonzero}
    .fil2 {fill:#8E377C;fill-rule:nonzero}
    .fil1 {fill:#00A859;fill-rule:nonzero}
    .fil3 {fill:#0098DA;fill-rule:nonzero}
   ]]>
  </style>
 </defs>
 <g id="Layer_x0020_1">
  <metadata id="CorelCorpID_0Corel-Layer"/>
  <g id="_2851837144336">
   <path class="fil0" d="M11888.97 14051.38c1.16,-25.26 2.31,-50.83 2.31,-76.11 0,-53.18 -2.19,-106.42 -5.58,-159.49l-0.25 -3.85c0,-0.13 -0.01,-0.25 -0.02,-0.38 -1.25,-24.33 19.03,-37.78 41.36,-37.78 20.28,0 40.63,-0.51 60.9,-1.06 20.75,-0.55 41.57,-1.07 62.33,-1.07 37.63,0 74.8,8.36 104.82,32.11 32.88,26.02 47.38,62.65 47.38,104.15 0,23.1 -2.63,48.06 -12.52,69.21 -7.61,16.26 -19.4,30.06 -32.93,41.78 0.15,0.31 0.29,0.62 0.43,0.93 6.28,13.83 12.76,27.57 19.27,41.3 7.38,15.56 14.76,31.18 21.77,46.91 3.99,8.96 9.87,20.95 9.87,30.78 0,19.74 -16.16,33.23 -35.19,33.23 -5.42,0 -10.96,-0.4 -16.36,-0.83 -3.74,-0.3 -7.7,-0.64 -11.44,-0.64 -4.16,0 -8.5,0.34 -12.65,0.65 -5.72,0.42 -11.55,0.82 -17.28,0.82 -16.23,0 -29.76,-9.37 -36.7,-23.88 -14.53,-30.39 -27.77,-62.69 -41.06,-93.89 -4.59,-0.07 -9.28,0.02 -13.74,0.02 -3.85,0 -8.14,-0.07 -12.55,-0.1 0.27,10.29 0.73,20.6 1.18,30.83 0.75,17.05 1.5,34.28 1.5,51.34 0,20.53 -15.44,36.42 -36.08,36.42 -5.9,0 -11.97,-0.62 -17.83,-1.25 -3.57,-0.38 -7.78,-0.96 -11.37,-0.96 -3.14,0 -6.54,0.34 -9.67,0.62 -5.01,0.43 -10.15,0.85 -15.18,0.85 -7.48,0 -14.34,-1.96 -20.09,-5.43 -6.12,3.56 -13.5,5.43 -21.21,5.43 -5.01,0 -10.08,-0.26 -15.08,-0.54 -3.83,-0.21 -7.74,-0.44 -11.58,-0.44 -3.99,0 -8.06,0.23 -12.05,0.44 -5.09,0.28 -10.24,0.54 -15.34,0.54 -30.62,0 -40.41,-35.61 -47.08,-59.09 -0.93,-3.27 -2.7,-9.4 -4.66,-14.46 -10.56,-0.19 -21.29,-0.04 -31.67,-0.04l-37.28 0c-9.06,0 -19,-0.26 -28.59,-0.13 -2.02,5.35 -3.84,11.57 -4.88,15.1 -6.8,23.04 -16.28,58.62 -46.5,58.62l-53.64 0c-19.93,0 -36.17,-14.5 -36.17,-34.86 0,-7.8 2.77,-15.62 5.41,-22.41l59.78 -160.11c0.07,-0.19 0.13,-0.35 0.21,-0.55 14.8,-37.48 30.63,-74.81 46.07,-112.03 0.12,-0.28 0.22,-0.52 0.35,-0.8 6.39,-14.27 12.07,-29.13 17.6,-43.75 5.49,-16.38 16.84,-30.06 35.86,-30.06 5.83,0 11.85,0.65 17.62,1.41 2.89,0.37 6.55,0.95 9.45,0.96 2.56,0 5.9,-0.56 8.43,-0.95 5.78,-0.88 11.88,-1.67 17.74,-1.67 17.81,0 27.94,12.44 34.55,26.9 0.19,0.41 0.34,0.75 0.51,1.17 5.88,14.38 11.31,29.17 16.85,43.7 12.97,33.99 25.88,68 38.79,102.01 13.98,36.79 27.96,73.58 41.88,110.38zm-1231.83 1.19c0.94,-25.18 1.86,-50.55 1.86,-75.74 0,-27.43 -0.98,-55.05 -1.94,-82.47 -0.99,-28.18 -1.98,-56.55 -1.98,-84.75 0,-21.36 16.69,-36.33 37.56,-36.33 8.97,0 17.95,0.12 26.93,0.24 8.68,0.13 17.37,0.25 26.05,0.25 8.16,0 16.33,-0.13 24.49,-0.25 8.62,-0.12 17.26,-0.24 25.88,-0.24 48.58,0 103.36,7.42 142.99,37.89 24.95,19.19 42.85,44.37 55.06,73.22 11.66,27.55 17.61,56.54 17.61,86.47 0,11.24 -0.71,22.28 -2.16,33.08l18.4 -49.28c0.07,-0.19 0.13,-0.35 0.21,-0.55 14.8,-37.48 30.63,-74.81 46.07,-112.03 0.12,-0.28 0.22,-0.52 0.35,-0.8 6.39,-14.27 12.07,-29.13 17.6,-43.75 5.49,-16.38 16.84,-30.06 35.86,-30.06 5.83,0 11.85,0.65 17.62,1.41 2.88,0.37 6.55,0.95 9.45,0.96 2.56,0 5.9,-0.56 8.43,-0.95 5.78,-0.88 11.88,-1.67 17.73,-1.67 17.81,0 27.95,12.44 34.56,26.9 0.19,0.41 0.33,0.75 0.5,1.17 5.89,14.38 11.31,29.17 16.86,43.7 12.96,33.99 25.87,68 38.8,102.01 17.61,46.39 35.24,92.77 52.75,139.2 3.9,10.33 19.61,47.79 19.61,58.53 0,21.23 -17.49,33.31 -37.07,33.31 -5.01,0 -10.07,-0.26 -15.08,-0.54 -3.83,-0.21 -7.74,-0.44 -11.58,-0.44 -3.99,0 -8.06,0.23 -12.05,0.44 -5.09,0.28 -10.24,0.54 -15.34,0.54 -30.62,0 -40.42,-35.61 -47.08,-59.09 -0.93,-3.27 -2.7,-9.4 -4.66,-14.46 -10.56,-0.19 -21.29,-0.04 -31.67,-0.04l-37.28 0c-9.06,0 -19,-0.26 -28.59,-0.13 -2.02,5.35 -3.84,11.57 -4.88,15.1 -6.8,23.04 -16.28,58.62 -46.5,58.62l-53.64 0c-19.93,0 -36.17,-14.5 -36.17,-34.86 0,-7.8 2.76,-15.62 5.41,-22.41l7.87 -21.08c-2.92,4.37 -6.01,8.66 -9.31,12.89 -33.1,42.44 -77.53,65.46 -131.51,65.46 -12.86,0 -25.82,-0.5 -38.68,-1 -12.07,-0.48 -24.21,-0.88 -36.3,-0.88 -10.81,0 -21.69,0.4 -32.5,0.87 -11.72,0.51 -23.55,1.01 -35.29,1.01 -7.7,0 -14.71,-2.09 -20.52,-5.76 -6.22,3.78 -13.82,5.76 -21.75,5.76 -5.01,0 -10.08,-0.26 -15.08,-0.54 -3.83,-0.21 -7.74,-0.44 -11.58,-0.44 -3.99,0 -8.07,0.23 -12.06,0.44 -5.08,0.28 -10.24,0.54 -15.33,0.54 -30.63,0 -40.42,-35.61 -47.08,-59.09 -0.93,-3.27 -2.71,-9.4 -4.67,-14.46 -10.56,-0.19 -21.29,-0.04 -31.66,-0.04l-37.28 0c-9.07,0 -19,-0.26 -28.6,-0.13 -2.01,5.35 -3.84,11.57 -4.88,15.1 -6.79,23.04 -16.27,58.62 -46.5,58.62l-53.64 0c-19.92,0 -36.17,-14.5 -36.17,-34.86 0,-7.8 2.77,-15.62 5.42,-22.41l59.77 -160.11c0.07,-0.19 0.14,-0.35 0.21,-0.55 14.8,-37.48 30.63,-74.81 46.08,-112.03 0.11,-0.28 0.22,-0.52 0.34,-0.8 6.39,-14.27 12.07,-29.13 17.61,-43.75 5.48,-16.38 16.84,-30.06 35.86,-30.06 5.82,0 11.84,0.65 17.62,1.41 2.88,0.37 6.55,0.95 9.44,0.96 2.57,0 5.9,-0.56 8.44,-0.95 5.78,-0.88 11.87,-1.67 17.73,-1.67 17.81,0 27.94,12.44 34.55,26.9 0.19,0.41 0.34,0.75 0.51,1.17 5.89,14.38 11.31,29.17 16.85,43.7 12.97,33.99 25.88,68 38.8,102.01 14.12,37.19 28.25,74.37 42.32,111.57zm849.38 -166.88c-0.66,28.23 -1.14,56.48 -1.14,84.68 0,27.13 0.97,54.44 1.94,81.55 0.99,27.83 1.98,55.86 1.98,83.71 0,21.66 -17.22,36.41 -38.29,36.41 -5.22,0 -10.55,-0.41 -15.75,-0.84 -3.51,-0.29 -7.23,-0.63 -10.75,-0.63 -3.44,0 -7.12,0.34 -10.56,0.63 -5.2,0.43 -10.55,0.84 -15.77,0.84 -21.32,0 -37.31,-15.99 -37.31,-37.31 0,-27.72 1.12,-55.67 2.23,-83.36 1.09,-26.91 2.18,-54.07 2.18,-81 0,-27.94 -0.6,-55.95 -1.42,-83.92 -20.2,1.14 -40.52,2.01 -60.53,2.01 -18.92,0 -34.2,-14.56 -34.2,-33.71 0,-6.89 1.48,-13.81 3.22,-20.45 0.84,-3.2 1.64,-6.43 2.46,-9.65 0.7,-8.1 2.17,-16.34 3.74,-24.25 0.4,-1.99 0.89,-3.65 1.65,-5.53 5.51,-13.8 18.21,-22.82 33.19,-22.82 0.94,0 1.74,0.03 2.68,0.11l2.43 0.21c35.99,2.09 73.59,4.83 109.61,4.83 25.19,0 51.19,-1.83 76.32,-3.45 9.1,-0.59 18.73,-0.96 27.84,-1.88 2.33,-0.44 4.75,-0.62 7.22,-0.51 17.84,0.8 32.66,12.46 35.71,30.36 0.6,3.52 0.59,7 0.03,10.35 -0.23,5.95 -0.07,12.27 -0.07,18.13 0.02,1.99 0.32,4.3 0.54,6.28 0.5,4.44 0.93,8.98 0.93,13.44 0,20.59 -14.49,37.56 -35.68,37.56 -8.48,0 -17.2,-0.46 -25.69,-0.75 -9.57,-0.34 -19.16,-0.68 -28.74,-1.04zm-1011.34 75.1c-1.73,4.55 -3.45,9.11 -5.17,13.67 -1.11,2.92 -2.33,6.05 -3.6,9.29 0.3,0 0.6,0 0.9,0l16.45 0c-2.86,-7.65 -5.71,-15.31 -8.58,-22.96zm657.11 0c-1.73,4.55 -3.46,9.11 -5.18,13.67 -1.11,2.92 -2.33,6.05 -3.59,9.29 0.3,0 0.6,0 0.9,0l16.44 0c-2.86,-7.65 -5.71,-15.31 -8.57,-22.96zm575.17 0c-1.73,4.55 -3.46,9.11 -5.18,13.67 -1.1,2.92 -2.33,6.05 -3.59,9.29 0.3,0 0.6,0 0.9,0l16.44 0c-2.85,-7.65 -5.71,-15.31 -8.57,-22.96zm-948.35 -76.88c-0.16,11.54 -0.41,23.08 -0.68,34.61 -0.42,18.14 -0.81,36.32 -0.81,54.47 0,17.97 0.39,35.99 0.81,53.96 0.27,11.46 0.53,22.94 0.68,34.41 2,-0.03 3.97,-0.03 5.88,-0.04 8.87,-0.05 17.75,-0.05 26.62,-0.05 9.94,0 23.73,-0.5 33.18,-3.89 9.08,-3.25 16.44,-9.66 22.48,-17.02 16.48,-20.1 22.81,-43.71 22.81,-69.5 0,-23.38 -5.29,-45.66 -21.32,-63.35 -15.66,-17.28 -35.61,-23.47 -58.62,-23.47 -8.97,0 -17.95,0 -26.92,-0.08 -1.35,-0.01 -2.72,-0.03 -4.11,-0.05zm1231.19 0.16c-0.35,14.69 -0.4,29.41 -0.4,44.1l0 17.19c11.68,0.44 23.37,0.61 35.05,0.61 8.13,0 24.79,-0.93 30.66,-7.89 3.46,-4.1 4.07,-11.55 4.07,-16.61 0,-8.46 -0.82,-25.87 -9.46,-30.94 -9.83,-5.77 -39.32,-6.49 -50.46,-6.49 -2.46,0 -5.85,-0.02 -9.46,0.03z"/>
   <path class="fil1" d="M10337.02 14140.69m318.9 -1.96c0,1.47 -1.97,1.96 -5.89,1.96 -2.94,0 -7.36,0 -13.25,-0.49 -5.89,-0.49 -10.3,-0.49 -13.24,-0.49 -2.95,0 -7.85,0 -13.74,0.49 -5.89,0.49 -10.79,0.49 -13.74,0.49 -4.41,0 -9.81,-12.26 -16.68,-36.3 -6.87,-24.04 -14.23,-36.31 -21.1,-36.8 -5.88,-0.49 -21.09,-0.49 -45.62,-0.49l-37.29 0c-26,0 -40.72,0 -44.15,0.49 -5.89,0.49 -12.27,12.76 -19.14,36.8 -7.36,24.04 -12.75,36.3 -16.68,36.3l-53.47 0c-3.44,0 -4.91,-0.98 -4.91,-3.43 0,-1.96 0.98,-5.89 3.43,-11.77l59.86 -159.94c4.9,-12.76 20.12,-50.05 45.63,-111.37 4.9,-10.3 10.79,-25.52 18.64,-46.12 1.96,-6.38 3.92,-9.32 6.37,-9.32 2.95,0 7.37,0.49 13.74,0.98 5.89,0.98 10.31,1.47 13.25,1.47 2.94,0 7.36,-0.49 13.25,-1.47 5.88,-0.98 10.3,-0.98 12.75,-0.98 1.47,0 3.43,2.45 6.38,8.34 3.44,8.83 22.08,57.4 55.44,145.22 46.61,123.14 70.16,185.45 70.16,186.43zm-110.39 -132.95c-1.47,-3.93 -9.32,-24.54 -23.06,-61.33 -13.25,-36.3 -22.08,-59.86 -26.49,-71.63 -33.36,84.39 -50.04,128.54 -50.04,132.47 0,5.39 6.37,8.34 18.15,9.32 0.49,0.49 8.34,0.49 23.06,0.49l24.53 0c22.57,0 33.85,-2.95 33.85,-9.32z"/>
   <path class="fil1" d="M10994.1 14140.69m318.9 -1.96c0,1.47 -1.96,1.96 -5.89,1.96 -2.94,0 -7.36,0 -13.24,-0.49 -5.89,-0.49 -10.3,-0.49 -13.25,-0.49 -2.95,0 -7.85,0 -13.74,0.49 -5.88,0.49 -10.79,0.49 -13.73,0.49 -4.42,0 -9.82,-12.26 -16.68,-36.3 -6.87,-24.04 -14.23,-36.31 -21.1,-36.8 -5.89,-0.49 -21.1,-0.49 -45.63,-0.49l-37.28 0c-26.01,0 -40.72,0 -44.16,0.49 -5.89,0.49 -12.26,12.76 -19.13,36.8 -7.36,24.04 -12.76,36.3 -16.68,36.3l-53.48 0c-3.43,0 -4.91,-0.98 -4.91,-3.43 0,-1.96 0.98,-5.89 3.44,-11.77l59.85 -159.94c4.91,-12.76 20.12,-50.05 45.63,-111.37 4.9,-10.3 10.79,-25.52 18.64,-46.12 1.97,-6.38 3.93,-9.32 6.38,-9.32 2.95,0 7.36,0.49 13.74,0.98 5.88,0.98 10.3,1.47 13.24,1.47 2.95,0 7.36,-0.49 13.25,-1.47 5.89,-0.98 10.3,-0.98 12.76,-0.98 1.47,0 3.43,2.45 6.38,8.34 3.43,8.83 22.07,57.4 55.43,145.22 46.61,123.14 70.16,185.45 70.16,186.43zm-110.39 -132.95c-1.47,-3.93 -9.32,-24.54 -23.05,-61.33 -13.25,-36.3 -22.08,-59.86 -26.5,-71.63 -33.36,84.39 -50.04,128.54 -50.04,132.47 0,5.39 6.38,8.34 18.15,9.32 0.49,0.49 8.34,0.49 23.06,0.49l24.53 0c22.57,0 33.85,-2.95 33.85,-9.32z"/>
   <path class="fil1" d="M11569.25 14140.69m318.9 -1.96c0,1.47 -1.96,1.96 -5.89,1.96 -2.94,0 -7.36,0 -13.25,-0.49 -5.88,-0.49 -10.3,-0.49 -13.24,-0.49 -2.95,0 -7.85,0 -13.74,0.49 -5.88,0.49 -10.79,0.49 -13.73,0.49 -4.42,0 -9.82,-12.26 -16.68,-36.3 -6.88,-24.04 -14.23,-36.31 -21.1,-36.8 -5.89,-0.49 -21.1,-0.49 -45.63,-0.49l-37.28 0c-26.01,0 -40.72,0 -44.16,0.49 -5.89,0.49 -12.26,12.76 -19.13,36.8 -7.36,24.04 -12.76,36.3 -16.68,36.3l-53.48 0c-3.43,0 -4.91,-0.98 -4.91,-3.43 0,-1.96 0.98,-5.89 3.44,-11.77l59.85 -159.94c4.91,-12.76 20.12,-50.05 45.63,-111.37 4.9,-10.3 10.79,-25.52 18.64,-46.12 1.97,-6.38 3.93,-9.32 6.38,-9.32 2.95,0 7.36,0.49 13.74,0.98 5.88,0.98 10.3,1.47 13.24,1.47 2.95,0 7.36,-0.49 13.25,-1.47 5.89,-0.98 10.3,-0.98 12.76,-0.98 1.47,0 3.43,2.45 6.38,8.34 3.43,8.83 22.07,57.4 55.43,145.22 46.61,123.14 70.16,185.45 70.16,186.43zm-110.39 -132.95c-1.47,-3.93 -9.32,-24.54 -23.05,-61.33 -13.25,-36.3 -22.08,-59.86 -26.5,-71.63 -33.36,84.39 -50.04,128.54 -50.04,132.47 0,5.39 6.38,8.34 18.15,9.32 0.49,0.49 8.34,0.49 23.06,0.49l24.53 0c22.57,0 33.85,-2.95 33.85,-9.32z"/>
   <path class="fil2" d="M10686.41 14140.69m293.87 -169.75c0,44.65 -12.75,83.41 -38.26,116.28 -27.97,35.81 -63.29,53.47 -106.95,53.47 -8.34,0 -20.61,-0.49 -37.29,-0.98 -16.68,-0.49 -29.44,-0.98 -37.78,-0.98 -7.36,0 -18.64,0.49 -33.85,0.98 -14.72,0.49 -26,0.98 -33.85,0.98 -3.93,0 -5.89,-1.96 -5.89,-5.88 0,-17.66 0.49,-43.67 1.96,-78.99 1.47,-35.33 1.97,-61.33 1.97,-78.99 0,-18.64 -0.5,-46.61 -1.97,-83.4 -1.47,-37.29 -1.96,-65.26 -1.96,-83.9 0,-3.43 1.96,-4.9 6.38,-4.9 5.89,0 14.72,0 26.49,0 11.78,0.49 20.61,0.49 26.49,0.49 5.4,0 13.74,0 25.03,-0.49 10.79,0 19.62,0 25.02,0 55.44,0 97.14,10.3 124.12,31.4 19.62,14.71 34.34,35.32 45.14,60.34 10.3,24.04 15.2,48.57 15.2,74.57zm-58.87 0c0,-34.83 -9.81,-62.79 -29.43,-84.38 -20.61,-22.57 -47.59,-33.85 -81.94,-33.85 -27.96,0 -39.24,0 -33.85,-0.49 -18.64,0.98 -28.45,4.41 -28.45,10.3 0,12.26 0,30.91 -0.49,55.44 -0.49,24.53 -0.99,42.68 -0.99,54.95 0,12.26 0.5,30.41 0.99,54.94 0.49,24.05 0.49,42.2 0.49,54.46 0,5.89 9.81,9.32 28.94,10.3 -2.45,0 9.33,0 34.84,0 18.64,0 32.87,-1.96 43.66,-5.88 13.74,-4.91 25.51,-13.74 36.31,-26.5 20.11,-24.53 29.92,-53.96 29.92,-89.29z"/>
   <path class="fil3" d="M11320.43 14140.69m244.82 -290.93c0,4.42 -1.48,6.38 -4.42,6.38 -4.41,0 -32.87,-0.98 -84.87,-2.94 -1.47,48.57 -1.97,87.81 -1.97,117.25 0,18.15 0.5,45.63 1.97,82.43 1.47,36.79 1.96,64.27 1.96,82.91 0,2.94 -2.45,4.9 -6.87,4.9 -2.95,0 -7.36,-0.49 -13.25,-0.98 -5.88,-0.49 -10.3,-0.49 -13.24,-0.49 -2.95,0 -7.36,0 -13.25,0.49 -5.89,0.49 -10.3,0.98 -13.24,0.98 -3.93,0 -5.89,-1.96 -5.89,-5.88 0,-18.16 0.98,-45.63 2.45,-82.42 1.47,-36.31 1.96,-63.79 1.96,-81.94 0,-28.45 -0.98,-67.7 -2.45,-117.25 -41.21,2.45 -71.63,3.92 -90.76,3.92 -1.97,0 -2.95,-0.98 -2.95,-2.45 0,-2.94 0.98,-6.87 2.46,-12.27 1.47,-7.35 2.45,-11.28 2.94,-12.75 0.49,-5.4 1.47,-13.25 3.43,-23.06 0.99,-1.96 1.97,-3.44 3.93,-3.44l2.94 0.5c56.42,3.43 93.71,4.9 111.86,4.9 16.19,0 42.19,-0.98 78.5,-3.43 24.53,-1.47 34.83,-2.46 30.91,-2.46 3.92,0 6.37,1.48 6.86,4.42 -0.49,-1.96 -0.49,5.89 -0.49,23.06 0,1.96 0.49,5.4 0.99,9.81 0.49,4.42 0.49,7.85 0.49,9.81z"/>
   <path class="fil4" d="M11916.68 14140.69m260.02 -1.96c0,1.47 -1.47,1.96 -3.92,1.96 -2.95,0 -7.36,-0.49 -13.74,-0.98 -6.38,-0.49 -10.79,-0.49 -13.74,-0.49 -3.43,0 -8.34,0 -15.21,0.49 -6.37,0.49 -11.77,0.98 -14.71,0.98 -3.93,0 -6.88,-1.96 -8.84,-5.88 -4.9,-11.29 -19.62,-44.65 -43.66,-101.07 -2.45,-5.89 -8.34,-9.32 -17.66,-10.79 -1.97,0 -9.32,0 -21.59,0 -22.07,0 -34.83,0.49 -39.25,0.98 -3.43,0.49 -4.9,4.41 -4.9,12.26 0,11.29 0.49,27.97 1.47,50.05 0.98,22.57 1.47,39.25 1.47,50.04 0,3.43 -1.47,5.39 -4.91,5.39 -2.94,0 -7.85,-0.49 -14.22,-1.47 -6.38,-0.49 -11.29,-0.98 -14.72,-0.98 -2.94,0 -6.87,0 -12.27,0.49 -5.89,0.49 -9.81,0.98 -12.75,0.98 -3.93,0 -5.89,-1.96 -5.89,-5.39 0,-17.66 0.98,-44.65 2.45,-79.97 1.47,-35.82 2.46,-62.31 2.46,-79.97 0,-50.53 -1.97,-104.5 -5.4,-161.41l-0.49 -3.93c0,-3.43 3.43,-4.9 10.3,-4.9 13.74,0 34.34,-0.49 61.33,-0.98 27.47,-0.99 48.08,-0.99 61.82,-0.99 35.32,0 63.77,8.34 85.36,25.02 23.55,18.65 35.33,45.14 35.33,79.48 0,24.04 -2.95,42.69 -9.33,55.93 -6.87,14.72 -19.13,27.97 -37.28,41.22 -3.44,1.96 -4.91,3.92 -4.91,5.88 0,2.46 9.81,23.55 28.95,63.78 19.13,40.23 28.45,61.82 28.45,64.27zm-65.74 -217.34c0,-28.94 -8.34,-48.08 -25.02,-57.89 -12.27,-7.36 -34.35,-10.79 -66.23,-10.79 -26,0 -39.25,1.96 -39.25,6.37 -1.47,8.34 -1.97,31.4 -1.97,69.18l0 45.63c0.5,0.49 1.48,0.49 2.95,0.98 2.94,0.49 7.85,0.49 14.23,0.98 15.21,0.98 31.89,1.47 49.06,1.47 44.15,0 66.23,-18.64 66.23,-55.93z"/>
   <path class="fil0" d="M9753.14 14222.83c-10.37,-14.78 -17.62,-39.75 -22.28,-56.18 -1.81,-6.36 -6.97,-23.52 -11.7,-32.14 -18.49,-0.63 -37.56,-0.33 -55.89,-0.33l-53.55 0c-14.45,0 -28.9,0.01 -43.35,0.17 -2.71,0.03 -5.57,0.02 -8.44,0.05 -4.65,9.48 -9.71,26.2 -11.65,32.77 -4.18,14.19 -8.85,29.28 -14.98,42.75 -6.97,15.32 -17.56,29.96 -36.44,29.96l-77.04 0c-19.76,0 -35.93,-13.68 -35.93,-34.05 0,-8.74 3.67,-18.65 6.83,-26.77l85.88 -230.03 0.1 -0.25c21.22,-53.75 43.92,-107.28 66.07,-160.66l0.16 -0.37 0.16 -0.37c9.35,-20.87 17.66,-42.6 25.76,-63.99 0.71,-2.17 1.49,-4.32 2.37,-6.44l7.42 -17.89 471.08 0 4.17 1.29c22.54,6.95 43.57,17.47 62.1,32.14 43.91,34.77 62.76,83.41 62.76,138.79 0,31.09 -3.37,65.4 -16.69,93.87 -11.82,25.27 -31.58,46.15 -53.46,63.33 1.86,4.09 3.78,8.11 5.39,11.68 9.37,20.69 19.08,41.26 28.81,61.78 10.7,22.58 21.42,45.24 31.59,68.07 4.39,9.86 12.95,27.38 12.95,38.11 0,19.5 -16.1,31.74 -34.61,31.74 -7.46,0 -15.12,-0.57 -22.56,-1.16 -5.89,-0.47 -12.08,-0.99 -17.99,-0.99 -6.49,0 -13.22,0.52 -19.69,1 -7.92,0.58 -16.02,1.15 -23.97,1.15 -17.23,0 -31.11,-9.98 -38.45,-25.32 -7.76,-16.24 -14.91,-33.07 -22.1,-49.58 -13.93,-31.95 -27.7,-63.98 -41.46,-96.01 -0.96,-0.27 -2.08,-0.48 -2.98,-0.63 -9.15,-0.55 -19.34,-0.22 -28.48,-0.22 -11.57,0 -23.17,0.04 -34.75,0.3 0.17,4.87 0.34,9.75 0.51,14.63 1.06,29.7 2.01,59.43 2.55,89.15 0.32,10.78 0.58,21.58 0.58,32.36 0,20.72 -15.03,36.39 -35.92,36.39 -3.8,0 -7.63,-0.24 -11.42,-0.53 -4.53,-0.23 -9.06,-0.57 -13.58,-0.94 -4.74,-0.39 -9.52,-0.77 -14.28,-0.92 -0.65,-0.02 -1.3,-0.04 -1.95,-0.05 -0.26,0 -0.51,0 -0.78,0 -5.49,0 -11.28,0.51 -16.75,0.97 -7.1,0.59 -14.43,1.17 -21.56,1.17 -13.61,0 -25.86,-6.27 -32.56,-17.8z"/>
   <path class="fil5" d="M9827.71 14209.55c-0.9,-0.02 -1.75,-0.04 -2.55,-0.06 0.79,0.01 1.64,0.03 2.55,0.06zm-49.93 -2.18c-5.38,-6.68 -11.72,-22.89 -19.02,-48.64 -9.87,-34.76 -19.85,-52.38 -30.07,-52.85 -8.34,-0.47 -30.07,-0.7 -65.42,-0.7l-53.55 0c-37.23,0 -58.48,0.23 -63.77,0.7 -8.1,0.7 -17.26,18.44 -27.48,53.09 -10.22,34.64 -18.09,51.91 -23.61,51.91l-77.04 0c-4.58,0 -6.93,-1.65 -6.93,-5.05 0,-2.47 1.65,-7.99 4.93,-16.45l85.85 -229.95c7.29,-18.44 29.25,-71.88 65.89,-160.19 6.58,-14.68 15.5,-36.76 26.66,-66.24 0.59,-1.84 1.18,-3.49 1.78,-4.93l59.8 0c-2.52,13.07 -4,23.45 -4.45,31.13 -0.48,1.78 -2.02,7.85 -4.64,18.09 -2.14,7.97 -3.21,13.92 -3.21,18.2 0,2.26 1.42,3.45 4.16,3.45 16.41,0 38.4,-0.65 65.9,-1.96 13.16,34.46 31.29,82.15 54.36,143.07 5.34,14.05 10.48,27.54 15.4,40.49 -0.33,25.67 -1.36,60.02 -3.09,102.92 -2.15,53.2 -3.22,92.94 -3.22,119.48 0,1.74 0.26,3.21 0.77,4.43zm-67.3 -190.39c-2.11,-5.52 -13.15,-35 -33.11,-88.2 -19.38,-51.68 -32.06,-85.86 -38.41,-102.65 -47.56,121.08 -71.28,184.62 -71.28,190.26 0,7.87 8.57,12.33 25.83,13.74 0.94,0.24 11.98,0.35 33.36,0.35l34.99 0c32.42,0 48.62,-4.46 48.62,-13.5z"/>
   <path class="fil6" d="M10156.34 14208.12c0,1.78 -1.91,2.74 -5.61,2.74 -4.41,0 -11.21,-0.36 -20.28,-1.07 -9.06,-0.72 -15.86,-1.08 -20.27,-1.08 -4.89,0 -12.17,0.36 -21.83,1.08 -9.66,0.71 -16.94,1.07 -21.83,1.07 -5.36,0 -9.42,-2.98 -12.28,-8.83 -7.51,-15.86 -28.87,-64.88 -64.17,-147.06 -3.46,-8.47 -11.93,-13.6 -25.41,-15.51 -2.98,-0.24 -13.6,-0.36 -31.61,-0.36 -32.08,0 -51.04,0.48 -57.13,1.44 -4.16,0.61 -6.51,4.93 -7.11,13.13 -0.41,-12.77 -0.74,-24.59 -1.02,-35.46l205.94 0c-0.59,1.06 -0.88,2.11 -0.88,3.12 0,3.22 13.83,34.23 41.74,93.04 27.79,58.68 41.75,89.93 41.75,93.75zm-283.98 -35.22c0.39,12.74 0.58,23.3 0.58,31.64 0,4.89 -2.27,7.39 -6.92,7.39 -2.5,0 -5.69,-0.17 -9.57,-0.48 2.4,0.12 4.44,0.18 6.12,0.18 6.78,0 10.12,-2.5 10.12,-7.38 0,-8.94 -0.11,-19.39 -0.33,-31.35z"/>
   <path class="fil2" d="M10043.35 13728.07c19.95,6.15 37.5,15.2 52.63,27.16 34.47,27.31 51.77,65.96 51.77,116.05 0,34.59 -4.65,61.67 -13.96,81.59 -9.78,20.87 -27.9,40.79 -54.39,59.75 -2.78,1.88 -4.66,3.76 -5.67,5.59l-205.94 0c-0.54,-22.02 -0.82,-40.17 -0.82,-54.46 0,-12.46 0.09,-26.1 0.25,-40.93l0 44.84c0.71,0.47 2.26,0.95 4.53,1.43 4.17,0.47 11.09,0.95 20.63,1.67 22.07,1.19 46.04,1.79 71.69,1.79 64.29,0 96.37,-27.2 96.37,-81.47 0,-42.22 -12.16,-70.37 -36.38,-84.56 -6.94,-4.08 -16.06,-7.36 -27.33,-9.85 2.02,-1.28 3.04,-4 3.04,-8.2 0,-3.33 -0.35,-8.09 -1.07,-14.52 -0.71,-6.42 -1.07,-11.07 -1.07,-14.16 0,-16.74 0.11,-27.29 0.32,-31.72l45.4 0zm-198.81 0c-5.66,0.12 -10.76,0.19 -15.29,0.19 -4.31,0 -9.36,-0.07 -15.17,-0.19l30.46 0zm36.52 65.58c-7.3,1.48 -11.08,3.54 -11.34,6.19 -0.03,0.21 -0.05,0.43 -0.08,0.65l0.19 -7.26 11.23 0.42z"/>
   <path class="fil7" d="M9999.77 13788.47c0,6.07 -2.14,9.04 -6.3,9.04 -6.55,0 -47.72,-1.42 -123.64,-4.28 -1.9,70.92 -2.86,127.68 -2.86,170.52 0,26.66 0.96,66.76 2.86,120.31 1.9,53.43 2.86,93.54 2.86,120.19 0,4.88 -3.34,7.38 -10.12,7.38 -4.16,0 -10.47,-0.36 -19.16,-1.07 -8.57,-0.72 -14.99,-1.08 -19.4,-1.08 -4.16,0 -10.59,0.36 -19.15,1.08 -8.57,0.71 -15,1.07 -19.16,1.07 -5.83,0 -8.69,-2.86 -8.69,-8.69 0,-26.54 1.07,-66.28 3.22,-119.48 2.14,-53.07 3.21,-93.05 3.21,-119.71 0,-41.41 -1.19,-98.29 -3.57,-170.52 -60.1,3.81 -104.25,5.71 -132.21,5.71 -2.74,0 -4.16,-1.19 -4.16,-3.45 0,-4.28 1.07,-10.23 3.21,-18.2 2.62,-10.24 4.16,-16.31 4.64,-18.09 0.45,-7.68 1.93,-18.06 4.45,-31.13l158.29 0c5.8,0.12 10.86,0.19 15.16,0.19 4.53,0 9.63,-0.07 15.29,-0.19l153.41 0c-0.21,4.43 -0.32,14.98 -0.32,31.72 0,3.09 0.36,7.74 1.07,14.16 0.72,6.43 1.07,11.19 1.07,14.52z"/>
  </g>
 </g>
</svg>
